<svg width="20" height="20" viewBox="0 0 20 20" fill="none" xmlns="http://www.w3.org/2000/svg">
<g clip-path="url(#clip0)">
<path d="M19.4752 15.4286L15.4271 12.729C14.9134 12.3892 14.2248 12.501 13.845 12.986L12.6658 14.5021C12.5143 14.7019 12.2388 14.7599 12.0196 14.6381L11.7953 14.5144C11.0517 14.1091 10.1266 13.6046 8.26251 11.7398C6.39845 9.87511 5.89286 8.94923 5.48757 8.20703L5.36458 7.98273C5.24112 7.76354 5.29799 7.48691 5.49788 7.33415L7.01297 6.15535C7.49774 5.77552 7.60972 5.08711 7.27028 4.57324L4.57068 0.525165C4.2228 0.0018832 3.52485 -0.155203 2.9863 0.168538L1.29355 1.18538C0.761671 1.49807 0.371456 2.00448 0.204723 2.59849C-0.404835 4.81949 0.0537292 8.65259 5.70024 14.2998C10.1919 18.7911 13.5358 19.9989 15.8341 19.9989C16.363 20.0012 16.8899 19.9324 17.4005 19.7943C17.9947 19.6278 18.5011 19.2375 18.8136 18.7055L19.8315 17.0137C20.1557 16.4751 19.9987 15.7767 19.4752 15.4286ZM19.2572 16.6718L18.2417 18.3645C18.0173 18.7485 17.653 19.0309 17.2252 19.1524C15.1748 19.7153 11.5927 19.2491 6.17181 13.8282C0.750931 8.40732 0.284711 4.8255 0.847635 2.77483C0.969336 2.34646 1.25203 1.98171 1.6365 1.75697L3.32926 0.741461C3.56294 0.600857 3.86586 0.669011 4.01681 0.896086L5.48328 3.09775L6.71411 4.94381C6.86151 5.1667 6.81308 5.46545 6.6028 5.63038L5.08736 6.80919C4.62618 7.16184 4.49448 7.79991 4.77842 8.30632L4.89875 8.52495C5.32471 9.30617 5.85427 10.278 7.78766 12.2111C9.72104 14.1441 10.6926 14.6737 11.4734 15.0996L11.6924 15.2203C12.1988 15.5042 12.8369 15.3725 13.1895 14.9114L14.3683 13.3959C14.5333 13.1857 14.8319 13.1374 15.0549 13.2846L19.1026 15.9842C19.3299 16.135 19.398 16.4381 19.2572 16.6718Z" fill="#1946BA"/>
<path d="M11.3327 3.335C14.4604 3.33847 16.9951 5.87314 16.9986 9.00084C16.9986 9.18491 17.1478 9.33411 17.3318 9.33411C17.5159 9.33411 17.6651 9.18491 17.6651 9.00084C17.6613 5.50515 14.8284 2.67228 11.3327 2.66846C11.1486 2.66846 10.9995 2.81765 10.9995 3.00173C10.9995 3.1858 11.1486 3.335 11.3327 3.335Z" fill="#1946BA"/>
<path d="M11.3327 5.33475C13.3565 5.33714 14.9965 6.97713 14.9989 9.00089C14.9989 9.18497 15.1481 9.33416 15.3321 9.33416C15.5162 9.33416 15.6654 9.18497 15.6654 9.00089C15.6626 6.60914 13.7244 4.67095 11.3327 4.66821C11.1486 4.66821 10.9995 4.81741 10.9995 5.00148C10.9995 5.18556 11.1486 5.33475 11.3327 5.33475Z" fill="#1946BA"/>
<path d="M11.3327 7.33445C12.2526 7.33555 12.998 8.08098 12.9992 9.00089C12.9992 9.18497 13.1484 9.33416 13.3324 9.33416C13.5165 9.33416 13.6657 9.18497 13.6657 9.00089C13.6642 7.71303 12.6206 6.66935 11.3327 6.66791C11.1486 6.66791 10.9995 6.81711 10.9995 7.00118C10.9995 7.18525 11.1486 7.33445 11.3327 7.33445Z" fill="#1946BA"/>
</g>
<defs>
<clipPath id="clip0">
<rect width="20" height="20" fill="white"/>
</clipPath>
</defs>
</svg>
