<svg width="52" height="52" viewBox="0 0 52 52" fill="none" xmlns="http://www.w3.org/2000/svg">
<path d="M18.3828 24.5781C14.1826 24.5781 10.7656 27.9951 10.7656 32.1953C10.7656 34.682 11.9637 36.8938 13.8125 38.2851V44.3828C13.8125 44.9108 14.0858 45.4012 14.5349 45.6789C14.984 45.9562 15.545 45.9816 16.0171 45.7456L18.3828 44.5625L20.7485 45.7456C21.2214 45.982 21.7824 45.9558 22.2307 45.6789C22.6798 45.4012 22.9531 44.9108 22.9531 44.3828V38.2851C24.8019 36.8938 26 34.682 26 32.1953C26 27.9951 22.583 24.5781 18.3828 24.5781ZM19.9062 41.9179L19.064 41.4966C18.6351 41.2824 18.1305 41.2824 17.7016 41.4966L16.8594 41.9179V39.659C17.3517 39.7593 17.8611 39.8125 18.3828 39.8125C18.9045 39.8125 19.4139 39.7593 19.9062 39.659V41.9179ZM18.3828 36.7656C15.8628 36.7656 13.8125 34.7153 13.8125 32.1953C13.8125 29.6753 15.8628 27.625 18.3828 27.625C20.9028 27.625 22.9531 29.6753 22.9531 32.1953C22.9531 34.7153 20.9028 36.7656 18.3828 36.7656Z" fill="#1946BA"/>
<path d="M6.19531 0C5.35385 0 4.67188 0.681976 4.67188 1.52344V50.4766C4.67188 51.318 5.35385 52 6.19531 52H33.6172C34.0222 52 34.4122 51.8362 34.6947 51.5537L46.8818 39.3666C47.1583 39.0901 47.3281 38.7021 47.3281 38.2891V1.52344C47.3281 0.681976 46.6461 0 45.8047 0H6.19531ZM7.71875 3.04688H44.2812V36.7656H33.6172C32.7757 36.7656 32.0938 37.4476 32.0938 38.2891V48.9531H7.71875V3.04688ZM42.1266 39.8125L35.1406 46.7985V39.8125H42.1266Z" fill="#1946BA"/>
<path d="M12.2891 15.4375H39.7109C40.5524 15.4375 41.2344 14.7555 41.2344 13.9141V7.61719C41.2344 6.77573 40.5524 6.09375 39.7109 6.09375H12.2891C11.4476 6.09375 10.7656 6.77573 10.7656 7.61719V13.9141C10.7656 14.7555 11.4476 15.4375 12.2891 15.4375ZM13.8125 9.14062H38.1875V12.3906H13.8125V9.14062Z" fill="#1946BA"/>
<path d="M12.2891 21.5312H39.7109C40.5524 21.5312 41.2344 20.8493 41.2344 20.0078C41.2344 19.1664 40.5524 18.4844 39.7109 18.4844H12.2891C11.4476 18.4844 10.7656 19.1664 10.7656 20.0078C10.7656 20.8493 11.4476 21.5312 12.2891 21.5312Z" fill="#1946BA"/>
<path d="M39.7109 24.5781H30.5703C29.7289 24.5781 29.0469 25.2601 29.0469 26.1016C29.0469 26.943 29.7289 27.625 30.5703 27.625H39.7109C40.5524 27.625 41.2344 26.943 41.2344 26.1016C41.2344 25.2601 40.5524 24.5781 39.7109 24.5781Z" fill="#1946BA"/>
<path d="M39.7109 33.7188C40.5524 33.7188 41.2344 33.0368 41.2344 32.1953C41.2344 31.3539 40.5524 30.6719 39.7109 30.6719H30.5703C29.7289 30.6719 29.0469 31.3539 29.0469 32.1953C29.0469 33.0368 29.7289 33.7188 30.5703 33.7188H39.7109Z" fill="#1946BA"/>
</svg>
