<svg width="52" height="53" viewBox="0 0 52 53" fill="none" xmlns="http://www.w3.org/2000/svg">
<path d="M48.6087 23.3407V17.8586C48.6087 14.9997 46.3267 12.6738 43.5218 12.6738H36.9599L25.9961 2.74089C25.3538 2.15882 24.3855 2.15882 23.7431 2.74089L12.7792 12.6739H8.47823C3.80331 12.6739 0 16.5504 0 21.3152V42.0544C0 46.8192 3.80331 50.6956 8.47823 50.6956H43.5217C46.3266 50.6956 48.6086 48.3697 48.6086 45.5109V40.0288C50.5823 39.3153 51.9999 37.3943 51.9999 35.1413V28.2282C52 25.9752 50.5823 24.0541 48.6087 23.3407ZM24.8696 6.34489L31.8554 12.6739H17.8838L24.8696 6.34489ZM45.2174 45.5109C45.2174 46.4638 44.4566 47.2392 43.5217 47.2392H8.47823C5.67328 47.2392 3.39127 44.9133 3.39127 42.0544V21.3152C3.39127 18.4563 5.67328 16.1304 8.47823 16.1304H43.5217C44.4566 16.1304 45.2174 16.9058 45.2174 17.8587V23.0435H40.1304C35.4555 23.0435 31.6522 26.92 31.6522 31.6848C31.6522 36.4496 35.4555 40.3261 40.1304 40.3261H45.2174V45.5109ZM48.6087 35.1413C48.6087 36.0942 47.848 36.8696 46.913 36.8696H40.1304C37.3254 36.8696 35.0434 34.5437 35.0434 31.6848C35.0434 28.8259 37.3254 26.5 40.1304 26.5H46.913C47.848 26.5 48.6087 27.2753 48.6087 28.2283V35.1413Z" fill="#1946BA"/>
<path d="M40.1304 33.4131C41.0669 33.4131 41.8261 32.6393 41.8261 31.6848C41.8261 30.7303 41.0669 29.9565 40.1304 29.9565C39.1939 29.9565 38.4347 30.7303 38.4347 31.6848C38.4347 32.6393 39.1939 33.4131 40.1304 33.4131Z" fill="#1946BA"/>
</svg>
