<svg width="20" height="20" viewBox="0 0 20 20" fill="none" xmlns="http://www.w3.org/2000/svg">
<path d="M19 2.33331H1C0.447734 2.33331 0 2.78101 0 3.33331V16.6666C0 17.2189 0.447695 17.6666 1 17.6666H19C19.5523 17.6666 20 17.2189 20 16.6666V3.33331C20 2.78105 19.5523 2.33331 19 2.33331ZM19.3333 16.6667C19.3333 16.8508 19.1841 17 19 17H1C0.815898 17 0.66668 16.8508 0.66668 16.6667V3.33331C0.66668 3.14921 0.815898 2.99999 1 2.99999H19C19.1841 2.99999 19.3333 3.14921 19.3333 3.33331V16.6667Z" fill="#1946BA"/>
<path d="M18.3623 3.66788C18.2743 3.66019 18.1867 3.6878 18.119 3.74468L10.429 10.2047C10.181 10.4131 9.81898 10.4131 9.57097 10.2047L1.88101 3.74464C1.7898 3.66808 1.66465 3.64597 1.55273 3.68667C1.44082 3.72737 1.3591 3.82472 1.3384 3.94202C1.31769 4.05933 1.36113 4.17874 1.45234 4.25531L9.14234 10.715C9.63797 11.1323 10.362 11.1323 10.8577 10.715L18.5477 4.25534C18.6154 4.19851 18.6577 4.1171 18.6654 4.02902C18.6731 3.94093 18.6455 3.85339 18.5886 3.7857C18.5318 3.71792 18.4504 3.67558 18.3623 3.66788Z" fill="#1946BA"/>
<path d="M6.41109 10.6691C6.29308 10.6428 6.17011 10.6824 6.08965 10.7727L1.42297 15.7727C1.33851 15.8591 1.3075 15.9846 1.34195 16.1005C1.3764 16.2164 1.4709 16.3045 1.58886 16.3308C1.70687 16.3572 1.82984 16.3175 1.91031 16.2273L6.57699 11.2273C6.66144 11.1408 6.69246 11.0154 6.65801 10.8995C6.62355 10.7836 6.5291 10.6955 6.41109 10.6691Z" fill="#1946BA"/>
<path d="M13.9103 10.7727C13.8299 10.6824 13.7069 10.6428 13.5889 10.6691C13.4709 10.6955 13.3764 10.7836 13.342 10.8995C13.3075 11.0154 13.3385 11.1408 13.423 11.2273L18.0897 16.2273C18.2162 16.3569 18.4231 16.3618 18.5556 16.2382C18.688 16.1146 18.6976 15.9079 18.577 15.7726L13.9103 10.7727Z" fill="#1946BA"/>
</svg>
