<svg width="21" height="21" viewBox="0 0 21 21" fill="none" xmlns="http://www.w3.org/2000/svg">
<g clip-path="url(#clip0)">
<path d="M5.96051 12.1949H8.16376V20.3429C8.16376 20.7051 8.45689 20.9991 8.82001 20.9991L12.3261 21C12.6893 21 12.9824 20.7051 12.9824 20.3438V12.1957H15.071C15.4018 12.1957 15.6809 11.949 15.722 11.6209L16.1578 8.12088C16.2068 7.73063 15.9014 7.38325 15.5068 7.38325H12.9824C13.0813 5.22112 12.6018 4.5815 14.0079 4.5815C14.9599 4.46775 16.4614 4.94987 16.4614 3.92525V0.795375C16.4614 0.46725 16.219 0.189875 15.8944 0.14525C15.6196 0.107625 14.5338 0 13.1871 0C7.05339 0 8.31601 6.8005 8.16464 7.38238H5.96051C5.59826 7.38238 5.30426 7.67638 5.30426 8.03863V11.5386C5.30426 11.9009 5.59826 12.1949 5.96051 12.1949ZM6.61676 8.69575H8.82001C9.18226 8.69575 9.47626 8.40175 9.47626 8.0395V5.28238C9.47626 2.75975 10.8281 1.31337 13.1863 1.31337C13.9545 1.31337 14.6615 1.351 15.148 1.3895V3.26988C14.7963 3.44925 11.669 2.49637 11.669 5.62975V8.04037C11.669 8.40263 11.963 8.69662 12.3253 8.69662H14.763L14.49 10.8841H12.3253C11.963 10.8841 11.669 11.1781 11.669 11.5404V19.6875H9.47714V11.5395C9.47714 11.1772 9.18314 10.8832 8.82089 10.8832H6.61676V8.69575Z" fill="#1946BA"/>
</g>
<defs>
<clipPath id="clip0">
<rect width="21" height="21" fill="white"/>
</clipPath>
</defs>
</svg>
