<svg width="19" height="19" viewBox="0 0 19 19" fill="none" xmlns="http://www.w3.org/2000/svg">
<path d="M3.76042 19H15.2396C17.313 19 19 17.313 19 15.2396V3.76042C19 1.68704 17.313 0 15.2396 0H3.76042C1.68704 0 0 1.68704 0 3.76042V15.2396C0 17.313 1.68704 19 3.76042 19ZM1.1875 3.76042C1.1875 2.34175 2.34175 1.1875 3.76042 1.1875H15.2396C16.6583 1.1875 17.8125 2.34175 17.8125 3.76042V15.2396C17.8125 16.6583 16.6583 17.8125 15.2396 17.8125H3.76042C2.34175 17.8125 1.1875 16.6583 1.1875 15.2396V3.76042Z" fill="#1946BA"/>
<path d="M9.50001 14.353C12.1758 14.353 14.3529 12.176 14.3529 9.50013C14.3529 6.8243 12.1758 4.64722 9.50001 4.64722C6.82418 4.64722 4.64709 6.8243 4.64709 9.50013C4.64709 12.176 6.82418 14.353 9.50001 14.353ZM9.50001 5.83472C11.5211 5.83472 13.1654 7.47901 13.1654 9.50013C13.1654 11.5213 11.5211 13.1655 9.50001 13.1655C7.47889 13.1655 5.83459 11.5213 5.83459 9.50013C5.83459 7.47901 7.47889 5.83472 9.50001 5.83472Z" fill="#1946BA"/>
<path d="M14.5334 5.82819C15.314 5.82819 15.9022 5.24235 15.9022 4.46573C15.9022 3.65585 15.2831 3.10327 14.5342 3.10327C13.7536 3.10327 13.1654 3.6891 13.1654 4.46573C13.1654 5.27402 13.7813 5.82819 14.5334 5.82819ZM14.6735 4.3351C14.9237 4.55598 14.3529 4.82436 14.3529 4.46652C14.3529 4.25277 14.6435 4.30819 14.6735 4.3351Z" fill="#1946BA"/>
</svg>
