<svg width="66" height="65" viewBox="0 0 66 65" fill="none" xmlns="http://www.w3.org/2000/svg">
<g clip-path="url(#clip0)">
<path d="M62.1328 42.3484V16.2001L64.7432 15.24C65.4975 14.9628 65.9985 14.2531 66 13.4597C66.0015 12.6662 65.503 11.9551 64.7497 11.6749L33.6833 0.122133C33.2427 -0.0420132 32.7573 -0.0420132 32.3172 0.122133L1.2508 11.6749C0.496494 11.9551 -0.0015072 12.6662 3.42718e-06 13.4597C0.00151405 14.2531 0.502537 14.9628 1.25734 15.24L11.7305 19.0922V32.9752C11.7305 33.7538 12.2119 34.454 12.946 34.7431C19.3526 37.2673 26.1 38.5468 33 38.5468C39.9 38.5468 46.6475 37.2673 53.054 34.7431C53.7882 34.454 54.2695 33.7538 54.2695 32.9752V19.0922L58.2656 17.6223V42.3484C56.0153 43.1345 54.3985 45.251 54.3985 47.7335C54.3985 49.1955 54.9599 50.5305 55.8804 51.5421C54.9599 52.5538 54.3985 53.8888 54.3985 55.3507V63.0949C54.3985 64.1467 55.264 64.9992 56.332 64.9992H64.0664C65.1344 64.9992 66 64.1467 66 63.0949V55.3507C66 53.8888 65.4386 52.5538 64.5181 51.5421C65.4391 50.5305 66 49.1955 66 47.7335C66 45.251 64.3837 43.1345 62.1328 42.3484ZM33 3.93916L58.5663 13.4463C57.4343 13.8628 34.1274 22.4346 33 22.8492C32.1485 22.5363 9.26867 14.1212 7.43377 13.4463L33 3.93916ZM50.4024 31.6685C39.1301 35.7831 26.8699 35.7831 15.5977 31.6685V20.5145L32.3238 26.6663C32.7598 26.8264 33.2402 26.8264 33.6768 26.6663L50.4024 20.5145V31.6685ZM60.1992 45.8292C61.2652 45.8292 62.1328 46.6837 62.1328 47.7335C62.1328 48.7839 61.2652 49.6378 60.1992 49.6378C59.1332 49.6378 58.2656 48.7839 58.2656 47.7335C58.2656 46.6837 59.1332 45.8292 60.1992 45.8292ZM62.1328 61.1906H58.2656V55.3507C58.2656 54.3009 59.1332 53.4464 60.1992 53.4464C61.2652 53.4464 62.1328 54.3009 62.1328 55.3507V61.1906Z" fill="#1946BA"/>
<path d="M34.9336 13.457C34.9336 14.5089 34.068 15.3613 33 15.3613C31.932 15.3613 31.0664 14.5089 31.0664 13.457C31.0664 12.4052 31.932 11.5527 33 11.5527C34.068 11.5527 34.9336 12.4052 34.9336 13.457Z" fill="#1946BA"/>
</g>
<defs>
<clipPath id="clip0">
<rect width="66" height="65" fill="white"/>
</clipPath>
</defs>
</svg>
