<svg width="21" height="21" viewBox="0 0 21 21" fill="none" xmlns="http://www.w3.org/2000/svg">
<path d="M10.4312 0C6.36033 0 3.0484 3.31193 3.0484 7.38281C3.0484 8.75823 3.4294 10.1005 4.15045 11.265L10.1613 20.6613L10.5337 21L10.8387 20.6613L16.7727 11.1653C17.4539 10.0254 17.814 8.71742 17.814 7.38281C17.814 3.31193 14.5021 0 10.4312 0ZM16.3942 10.5336L10.5337 19.9839L4.51885 10.6167C3.91867 9.64745 3.59325 8.5292 3.59325 7.38281C3.59325 3.99041 7.03881 0.544846 10.4312 0.544846C13.8236 0.544846 17.2651 3.99041 17.2651 7.38281C17.2651 8.4952 16.9611 9.58486 16.3942 10.5336Z" fill="#1946BA"/>
<path d="M10.5 3.48559C8.46456 3.48559 6.80859 5.14156 6.80859 7.177C6.80859 9.19944 8.43761 10.8684 10.5 10.8684C12.5878 10.8684 14.1914 9.17721 14.1914 7.177C14.1914 5.14156 12.5354 3.48559 10.5 3.48559ZM10.5 10.2942C9.13594 10.2942 7.45161 9.14509 7.45161 7.2458C7.45161 5.88884 8.46774 4.06445 10.5 4.06445C12.1935 4.06445 13.5484 5.0973 13.5484 7.2458C13.6232 9.14775 11.8857 10.2942 10.5 10.2942Z" fill="#1946BA"/>
</svg>
