<svg width="21" height="21" viewBox="0 0 21 21" fill="none" xmlns="http://www.w3.org/2000/svg">
<g clip-path="url(#clip0)">
<path d="M0.363111 9.79645L5.49849 12.3558C5.69711 12.4538 5.93161 12.4468 6.12149 12.3357L10.6925 9.67832L7.92574 12.1301C7.78486 12.2552 7.70436 12.4337 7.70436 12.6218V18.5937C7.70436 19.2237 8.50849 19.4888 8.88561 18.9883L11.1055 16.0369L16.5952 19.1633C16.9802 19.3847 17.4737 19.1624 17.563 18.7223L20.9869 1.65982C21.0892 1.14707 20.5791 0.728822 20.1049 0.919572L0.417361 8.5977C-0.111139 8.8042 -0.145264 9.54357 0.363111 9.79645ZM19.4644 2.57857L16.4552 17.5734L11.2534 14.6107C10.9699 14.4488 10.605 14.5206 10.4037 14.7866L9.01686 16.6302V12.9167L16.499 6.2877C17.0914 5.76357 16.4106 4.8317 15.7342 5.22895L5.76799 11.0232L2.27499 9.28282L19.4644 2.57857Z" fill="#1946BA"/>
</g>
<defs>
<clipPath id="clip0">
<rect width="21" height="21" fill="white"/>
</clipPath>
</defs>
</svg>
