<svg width="55" height="55" viewBox="0 0 55 55" fill="none" xmlns="http://www.w3.org/2000/svg">
<path d="M51.7773 31.394V4.94141C51.7773 4.0514 51.056 3.33008 50.166 3.33008H42.002V1.61133C42.002 0.721321 41.2806 0 40.3906 0C39.5006 0 38.7793 0.721321 38.7793 1.61133V3.33008H32.334V1.61133C32.334 0.721321 31.6127 0 30.7227 0C29.8326 0 29.1113 0.721321 29.1113 1.61133V3.33008H22.666V1.61133C22.666 0.721321 21.9447 0 21.0547 0C20.1647 0 19.4434 0.721321 19.4434 1.61133V3.33008H12.998V1.61133C12.998 0.721321 12.2767 0 11.3867 0C10.4967 0 9.77539 0.721321 9.77539 1.61133V3.33008H1.61133C0.721321 3.33008 0 4.0514 0 4.94141V46.9434C0 47.8334 0.721321 48.5547 1.61133 48.5547H28.4458C31.0508 52.4382 35.4807 55 40.498 55C48.4943 55 55 48.4943 55 40.498C55 37.053 53.7915 33.8849 51.7773 31.394ZM9.77539 6.55273V8.16406C9.77539 9.05407 10.4967 9.77539 11.3867 9.77539C12.2767 9.77539 12.998 9.05407 12.998 8.16406V6.55273H19.4434V8.16406C19.4434 9.05407 20.1647 9.77539 21.0547 9.77539C21.9447 9.77539 22.666 9.05407 22.666 8.16406V6.55273H29.1113V8.16406C29.1113 9.05407 29.8326 9.77539 30.7227 9.77539C31.6127 9.77539 32.334 9.05407 32.334 8.16406V6.55273H38.7793V8.16406C38.7793 9.05407 39.5006 9.77539 40.3906 9.77539C41.2806 9.77539 42.002 9.05407 42.002 8.16406V6.55273H48.5547V12.998H3.22266V6.55273H9.77539ZM3.22266 45.332V16.2207H48.5547V28.4458C46.2489 26.8995 43.4769 25.9961 40.498 25.9961C35.4064 25.9961 30.9199 28.6342 28.3317 32.6147C28.1139 32.5048 27.8684 32.4414 27.6074 32.4414H24.3848C23.4948 32.4414 22.7734 33.1627 22.7734 34.0527C22.7734 34.9427 23.4948 35.6641 24.3848 35.6641H26.8257C26.4619 36.6904 26.2101 37.7697 26.0863 38.8867H24.3848C23.4948 38.8867 22.7734 39.608 22.7734 40.498C22.7734 41.3881 23.4948 42.1094 24.3848 42.1094H26.0863C26.2101 43.2264 26.4614 44.3056 26.8257 45.332H3.22266ZM40.498 51.7773C34.2785 51.7773 29.2188 46.7176 29.2188 40.498C29.2188 34.2785 34.2785 29.2188 40.498 29.2188C46.7176 29.2188 51.7773 34.2785 51.7773 40.498C51.7773 46.7176 46.7176 51.7773 40.498 51.7773Z" fill="#1946BA"/>
<path d="M46.9434 38.8867H42.1094V34.0527C42.1094 33.1627 41.3881 32.4414 40.498 32.4414C39.608 32.4414 38.8867 33.1627 38.8867 34.0527V40.498C38.8867 41.3881 39.608 42.1094 40.498 42.1094H46.9434C47.8334 42.1094 48.5547 41.3881 48.5547 40.498C48.5547 39.608 47.8334 38.8867 46.9434 38.8867Z" fill="#1946BA"/>
<path d="M14.6094 19.5508H11.3867C10.4967 19.5508 9.77539 20.2721 9.77539 21.1621C9.77539 22.0521 10.4967 22.7734 11.3867 22.7734H14.6094C15.4994 22.7734 16.2207 22.0521 16.2207 21.1621C16.2207 20.2721 15.4994 19.5508 14.6094 19.5508Z" fill="#1946BA"/>
<path d="M14.6094 25.9961H11.3867C10.4967 25.9961 9.77539 26.7174 9.77539 27.6074C9.77539 28.4974 10.4967 29.2188 11.3867 29.2188H14.6094C15.4994 29.2188 16.2207 28.4974 16.2207 27.6074C16.2207 26.7174 15.4994 25.9961 14.6094 25.9961Z" fill="#1946BA"/>
<path d="M14.6094 32.4414H11.3867C10.4967 32.4414 9.77539 33.1627 9.77539 34.0527C9.77539 34.9427 10.4967 35.6641 11.3867 35.6641H14.6094C15.4994 35.6641 16.2207 34.9427 16.2207 34.0527C16.2207 33.1627 15.4994 32.4414 14.6094 32.4414Z" fill="#1946BA"/>
<path d="M24.3848 22.7734H27.6074C28.4974 22.7734 29.2188 22.0521 29.2188 21.1621C29.2188 20.2721 28.4974 19.5508 27.6074 19.5508H24.3848C23.4948 19.5508 22.7734 20.2721 22.7734 21.1621C22.7734 22.0521 23.4948 22.7734 24.3848 22.7734Z" fill="#1946BA"/>
<path d="M24.3848 29.2188H27.6074C28.4974 29.2188 29.2188 28.4974 29.2188 27.6074C29.2188 26.7174 28.4974 25.9961 27.6074 25.9961H24.3848C23.4948 25.9961 22.7734 26.7174 22.7734 27.6074C22.7734 28.4974 23.4948 29.2188 24.3848 29.2188Z" fill="#1946BA"/>
<path d="M14.6094 38.8867H11.3867C10.4967 38.8867 9.77539 39.608 9.77539 40.498C9.77539 41.3881 10.4967 42.1094 11.3867 42.1094H14.6094C15.4994 42.1094 16.2207 41.3881 16.2207 40.498C16.2207 39.608 15.4994 38.8867 14.6094 38.8867Z" fill="#1946BA"/>
<path d="M37.2754 22.7734H40.498C41.3881 22.7734 42.1094 22.0521 42.1094 21.1621C42.1094 20.2721 41.3881 19.5508 40.498 19.5508H37.2754C36.3854 19.5508 35.6641 20.2721 35.6641 21.1621C35.6641 22.0521 36.3854 22.7734 37.2754 22.7734Z" fill="#1946BA"/>
</svg>
